<svg xmlns="http://www.w3.org/2000/svg" width="1200" height="630" viewBox="0 0 1200 630" font-family="'JetBrains Mono','Courier New',monospace">
  <defs>
    <radialGradient id="glow" cx="50%" cy="0%" r="75%">
      <stop offset="0%" stop-color="#7ee787" stop-opacity="0.20"/>
      <stop offset="60%" stop-color="#7ee787" stop-opacity="0"/>
    </radialGradient>
    <linearGradient id="name" x1="0" y1="0" x2="1" y2="0.3">
      <stop offset="0%" stop-color="#7ee787"/>
      <stop offset="55%" stop-color="#56d4dd"/>
      <stop offset="100%" stop-color="#79c0ff"/>
    </linearGradient>
    <radialGradient id="core" cx="50%" cy="50%" r="50%">
      <stop offset="0%" stop-color="#7ee787" stop-opacity="0.9"/>
      <stop offset="35%" stop-color="#7ee787" stop-opacity="0.35"/>
      <stop offset="100%" stop-color="#7ee787" stop-opacity="0"/>
    </radialGradient>
    <pattern id="grid" width="48" height="48" patternUnits="userSpaceOnUse">
      <path d="M48 0H0V48" fill="none" stroke="#7ee787" stroke-opacity="0.05" stroke-width="1"/>
    </pattern>
  </defs>

  <!-- background -->
  <rect width="1200" height="630" fill="#0a0e14"/>
  <rect width="1200" height="630" fill="url(#grid)"/>
  <rect width="1200" height="630" fill="url(#glow)"/>

  <!-- right-side HUD ornament -->
  <g transform="translate(940 315)">
    <circle r="210" fill="url(#core)"/>
    <circle r="150" fill="none" stroke="#7ee787" stroke-opacity="0.18" stroke-width="2"/>
    <circle r="186" fill="none" stroke="#56d4dd" stroke-opacity="0.30" stroke-width="1.5"/>
    <circle r="186" fill="none" stroke="#7ee787" stroke-opacity="0.5" stroke-width="3" stroke-dasharray="120 760" stroke-linecap="round" transform="rotate(-90)"/>
    <circle r="222" fill="none" stroke="#7ee787" stroke-opacity="0.14" stroke-width="1" stroke-dasharray="2 12"/>
    <g stroke="#7ee787" stroke-opacity="0.45" stroke-width="2">
      <line x1="0" y1="-150" x2="0" y2="-128"/>
      <line x1="0" y1="150" x2="0" y2="128"/>
      <line x1="-150" y1="0" x2="-128" y2="0"/>
      <line x1="150" y1="0" x2="128" y2="0"/>
    </g>
    <circle r="78" fill="none" stroke="#7ee787" stroke-opacity="0.5" stroke-width="1.5"/>
    <text x="0" y="14" text-anchor="middle" font-size="56" font-weight="700" fill="#7ee787">DK</text>
  </g>

  <!-- left-side text -->
  <text x="90" y="150" font-size="22" letter-spacing="3" fill="#7d8aa0">// COMPUTER ENGINEERING @ HCMUT</text>
  <text x="86" y="268" font-size="94" font-weight="800" fill="url(#name)">Dang Thai Khang</text>
  <text x="90" y="350" font-size="34" fill="#aeb9c7">Computer Engineering student · HCMUT</text>
  <text x="90" y="408" font-size="26" fill="#7d8aa0">I build things and take them apart to understand them.</text>

  <!-- tags -->
  <g font-size="22" fill="#aeb9c7">
    <g>
      <rect x="90" y="452" width="118" height="46" rx="23" fill="none" stroke="#2c3e5c"/>
      <text x="149" y="481" text-anchor="middle">Verilog</text>
    </g>
    <g>
      <rect x="222" y="452" width="108" height="46" rx="23" fill="none" stroke="#2c3e5c"/>
      <text x="276" y="481" text-anchor="middle">ESP32</text>
    </g>
    <g>
      <rect x="344" y="452" width="116" height="46" rx="23" fill="none" stroke="#2c3e5c"/>
      <text x="402" y="481" text-anchor="middle">Python</text>
    </g>
    <g>
      <rect x="474" y="452" width="98" height="46" rx="23" fill="none" stroke="#2c3e5c"/>
      <text x="523" y="481" text-anchor="middle">Flask</text>
    </g>
    <g>
      <rect x="586" y="452" width="86" height="46" rx="23" fill="none" stroke="#2c3e5c"/>
      <text x="629" y="481" text-anchor="middle">AWS</text>
    </g>
  </g>

  <!-- footer line -->
  <line x1="90" y1="548" x2="690" y2="548" stroke="#1f2b40" stroke-width="1"/>
  <text x="90" y="586" font-size="22" fill="#7d8aa0">github.com/XeminoL</text>
  <text x="690" y="586" text-anchor="end" font-size="22" fill="#56d364">HTML · CSS · JS</text>
</svg>
